<svg width="24" height="24" viewBox="0 0 24 24" fill="none" xmlns="http://www.w3.org/2000/svg">
<path d="M13.0436 17.7393H10.9566C10.6337 17.7402 10.3189 17.8409 10.0555 18.0277C9.79211 18.2146 9.59293 18.4783 9.48529 18.7827H8.3479V19.8262H9.48529C9.59293 20.1307 9.79211 20.3944 10.0555 20.5812C10.3189 20.768 10.6337 20.8688 10.9566 20.8697H13.0436C13.4587 20.8697 13.8568 20.7048 14.1503 20.4113C14.4439 20.1177 14.6088 19.7196 14.6088 19.3045C14.6088 18.8894 14.4439 18.4912 14.1503 18.1977C13.8568 17.9042 13.4587 17.7393 13.0436 17.7393ZM13.0436 19.8262H10.9566C10.8182 19.8262 10.6855 19.7712 10.5877 19.6734C10.4898 19.5756 10.4349 19.4428 10.4349 19.3045C10.4349 19.1661 10.4898 19.0334 10.5877 18.9355C10.6855 18.8377 10.8182 18.7827 10.9566 18.7827H13.0436C13.1819 18.7827 13.3146 18.8377 13.4125 18.9355C13.5103 19.0334 13.5653 19.1661 13.5653 19.3045C13.5653 19.4428 13.5103 19.5756 13.4125 19.6734C13.3146 19.7712 13.1819 19.8262 13.0436 19.8262Z" fill="#2C2C2C"/>
<path d="M18.7825 9.05211V4.69559C18.7825 4.28047 18.6176 3.88235 18.3241 3.58881C18.0305 3.29528 17.6324 3.13037 17.2173 3.13037H16.1738V4.17385H17.2173C17.3557 4.17385 17.4884 4.22882 17.5862 4.32666C17.6841 4.42451 17.739 4.55721 17.739 4.69559V8.8695H16.1738V15.1304H17.739C18.4757 15.128 19.188 14.8659 19.7505 14.3902C20.313 13.9145 20.6897 13.2557 20.8143 12.5296C20.939 11.8036 20.8036 11.0568 20.4319 10.4207C20.0603 9.78466 19.4762 9.30003 18.7825 9.05211ZM17.739 14.0869H17.2173V9.91298H17.739C18.2925 9.91298 18.8234 10.1329 19.2147 10.5242C19.6061 10.9156 19.826 11.4464 19.826 11.9999C19.826 12.5534 19.6061 13.0843 19.2147 13.4756C18.8234 13.867 18.2925 14.0869 17.739 14.0869Z" fill="#2C2C2C"/>
<path d="M6.78249 4.17385H13.0434V3.13037H6.78249C6.36737 3.13037 5.96925 3.29528 5.67572 3.58881C5.38218 3.88235 5.21728 4.28047 5.21728 4.69559V9.05211C4.6094 9.26936 4.08355 9.66923 3.71175 10.1969C3.33995 10.7247 3.14038 11.3544 3.14038 11.9999C3.14038 12.6455 3.33995 13.2752 3.71175 13.8029C4.08355 14.3306 4.6094 14.7305 5.21728 14.9478V18.2608C5.21614 18.439 5.24798 18.6159 5.31119 18.7825C5.41883 19.087 5.61801 19.3507 5.88142 19.5375C6.14482 19.7243 6.45957 19.8251 6.78249 19.826H7.30423V18.7825H6.78249C6.64412 18.7825 6.51141 18.7276 6.41357 18.6297C6.31572 18.5319 6.26076 18.3992 6.26076 18.2608V15.1304H7.82597V8.8695H6.26076V4.69559C6.26076 4.55721 6.31572 4.42451 6.41357 4.32666C6.51141 4.22882 6.64412 4.17385 6.78249 4.17385ZM6.78249 9.91298V14.0869H6.26076C5.70726 14.0869 5.17643 13.867 4.78505 13.4756C4.39367 13.0843 4.1738 12.5534 4.1738 11.9999C4.1738 11.4464 4.39367 10.9156 4.78505 10.5242C5.17643 10.1329 5.70726 9.91298 6.26076 9.91298H6.78249Z" fill="#2C2C2C"/>
<path d="M15.1304 3.13037H14.0869V4.17385H15.1304V3.13037Z" fill="#2C2C2C"/>
</svg>
