<svg width="160" height="144" viewBox="0 0 160 144" fill="none" xmlns="http://www.w3.org/2000/svg">
<rect width="159.5" height="144" rx="8" fill="#050A1E" fill-opacity="0.06"/>
<path d="M69.8332 45.0417V61.9583H89.1665V47.4583H78.9993L76.5827 45.0417H69.8332ZM80.0003 45.0417H90.3748C91.0422 45.0417 91.5832 45.5827 91.5832 46.25V63.1667C91.5832 63.834 91.0422 64.375 90.3748 64.375H68.6248C67.9575 64.375 67.4165 63.834 67.4165 63.1667V43.8333C67.4165 43.166 67.9575 42.625 68.6248 42.625H77.5837L80.0003 45.0417ZM77.0832 51.6875C77.0832 52.6885 76.2717 53.5 75.2707 53.5C74.2697 53.5 73.4582 52.6885 73.4582 51.6875C73.4582 50.6865 74.2697 49.875 75.2707 49.875C76.2717 49.875 77.0832 50.6865 77.0832 51.6875ZM86.7498 59.5417L81.9165 52.2917L73.4582 59.5417H86.7498Z" fill="#DBDBDB"/>
<path d="M25.4968 78.692C25.8008 78.74 26.0768 78.864 26.3248 79.064C26.5808 79.264 26.7808 79.512 26.9248 79.808C27.0768 80.104 27.1528 80.42 27.1528 80.756C27.1528 81.18 27.0448 81.564 26.8288 81.908C26.6128 82.244 26.2968 82.512 25.8808 82.712C25.4728 82.904 24.9888 83 24.4288 83H21.3088V74.636H24.3088C24.8768 74.636 25.3608 74.732 25.7608 74.924C26.1608 75.108 26.4608 75.36 26.6608 75.68C26.8608 76 26.9608 76.36 26.9608 76.76C26.9608 77.256 26.8248 77.668 26.5528 77.996C26.2888 78.316 25.9368 78.548 25.4968 78.692ZM22.4008 78.248H24.2368C24.7488 78.248 25.1448 78.128 25.4248 77.888C25.7048 77.648 25.8448 77.316 25.8448 76.892C25.8448 76.468 25.7048 76.136 25.4248 75.896C25.1448 75.656 24.7408 75.536 24.2128 75.536H22.4008V78.248ZM24.3328 82.1C24.8768 82.1 25.3008 81.972 25.6048 81.716C25.9088 81.46 26.0608 81.104 26.0608 80.648C26.0608 80.184 25.9008 79.82 25.5808 79.556C25.2608 79.284 24.8328 79.148 24.2968 79.148H22.4008V82.1H24.3328ZM29.7601 77.492C29.9521 77.116 30.2241 76.824 30.5761 76.616C30.9361 76.408 31.3721 76.304 31.8841 76.304V77.432H31.5961C30.3721 77.432 29.7601 78.096 29.7601 79.424V83H28.6681V76.424H29.7601V77.492ZM36.0127 83.108C35.3967 83.108 34.8367 82.968 34.3327 82.688C33.8367 82.408 33.4447 82.012 33.1567 81.5C32.8767 80.98 32.7367 80.38 32.7367 79.7C32.7367 79.028 32.8807 78.436 33.1687 77.924C33.4647 77.404 33.8647 77.008 34.3687 76.736C34.8727 76.456 35.4367 76.316 36.0607 76.316C36.6847 76.316 37.2487 76.456 37.7527 76.736C38.2567 77.008 38.6527 77.4 38.9407 77.912C39.2367 78.424 39.3847 79.02 39.3847 79.7C39.3847 80.38 39.2327 80.98 38.9287 81.5C38.6327 82.012 38.2287 82.408 37.7167 82.688C37.2047 82.968 36.6367 83.108 36.0127 83.108ZM36.0127 82.148C36.4047 82.148 36.7727 82.056 37.1167 81.872C37.4607 81.688 37.7367 81.412 37.9447 81.044C38.1607 80.676 38.2687 80.228 38.2687 79.7C38.2687 79.172 38.1647 78.724 37.9567 78.356C37.7487 77.988 37.4767 77.716 37.1407 77.54C36.8047 77.356 36.4407 77.264 36.0487 77.264C35.6487 77.264 35.2807 77.356 34.9447 77.54C34.6167 77.716 34.3527 77.988 34.1527 78.356C33.9527 78.724 33.8527 79.172 33.8527 79.7C33.8527 80.236 33.9487 80.688 34.1407 81.056C34.3407 81.424 34.6047 81.7 34.9327 81.884C35.2607 82.06 35.6207 82.148 36.0127 82.148ZM49.5805 76.424L47.5285 83H46.4005L44.8165 77.78L43.2325 83H42.1045L40.0405 76.424H41.1565L42.6685 81.944L44.3005 76.424H45.4165L47.0125 81.956L48.5005 76.424H49.5805ZM52.9922 83.108C52.4882 83.108 52.0362 83.024 51.6362 82.856C51.2362 82.68 50.9202 82.44 50.6882 82.136C50.4562 81.824 50.3282 81.468 50.3042 81.068H51.4322C51.4642 81.396 51.6162 81.664 51.8882 81.872C52.1682 82.08 52.5322 82.184 52.9802 82.184C53.3962 82.184 53.7242 82.092 53.9642 81.908C54.2042 81.724 54.3242 81.492 54.3242 81.212C54.3242 80.924 54.1962 80.712 53.9402 80.576C53.6842 80.432 53.2882 80.292 52.7522 80.156C52.2642 80.028 51.8642 79.9 51.5522 79.772C51.2482 79.636 50.9842 79.44 50.7602 79.184C50.5442 78.92 50.4362 78.576 50.4362 78.152C50.4362 77.816 50.5362 77.508 50.7362 77.228C50.9362 76.948 51.2202 76.728 51.5882 76.568C51.9562 76.4 52.3762 76.316 52.8482 76.316C53.5762 76.316 54.1642 76.5 54.6122 76.868C55.0602 77.236 55.3002 77.74 55.3322 78.38H54.2402C54.2162 78.036 54.0762 77.76 53.8202 77.552C53.5722 77.344 53.2362 77.24 52.8122 77.24C52.4202 77.24 52.1082 77.324 51.8762 77.492C51.6442 77.66 51.5282 77.88 51.5282 78.152C51.5282 78.368 51.5962 78.548 51.7322 78.692C51.8762 78.828 52.0522 78.94 52.2602 79.028C52.4762 79.108 52.7722 79.2 53.1482 79.304C53.6202 79.432 54.0042 79.56 54.3002 79.688C54.5962 79.808 54.8482 79.992 55.0562 80.24C55.2722 80.488 55.3842 80.812 55.3922 81.212C55.3922 81.572 55.2922 81.896 55.0922 82.184C54.8922 82.472 54.6082 82.7 54.2402 82.868C53.8802 83.028 53.4642 83.108 52.9922 83.108ZM62.9338 79.46C62.9338 79.668 62.9218 79.888 62.8978 80.12H57.6418C57.6818 80.768 57.9018 81.276 58.3018 81.644C58.7098 82.004 59.2018 82.184 59.7778 82.184C60.2498 82.184 60.6418 82.076 60.9538 81.86C61.2738 81.636 61.4978 81.34 61.6258 80.972H62.8018C62.6258 81.604 62.2738 82.12 61.7458 82.52C61.2178 82.912 60.5618 83.108 59.7778 83.108C59.1538 83.108 58.5938 82.968 58.0978 82.688C57.6098 82.408 57.2258 82.012 56.9458 81.5C56.6658 80.98 56.5258 80.38 56.5258 79.7C56.5258 79.02 56.6618 78.424 56.9338 77.912C57.2058 77.4 57.5858 77.008 58.0738 76.736C58.5698 76.456 59.1378 76.316 59.7778 76.316C60.4018 76.316 60.9538 76.452 61.4338 76.724C61.9138 76.996 62.2818 77.372 62.5378 77.852C62.8018 78.324 62.9338 78.86 62.9338 79.46ZM61.8058 79.232C61.8058 78.816 61.7138 78.46 61.5298 78.164C61.3458 77.86 61.0938 77.632 60.7738 77.48C60.4618 77.32 60.1138 77.24 59.7298 77.24C59.1778 77.24 58.7058 77.416 58.3138 77.768C57.9298 78.12 57.7098 78.608 57.6538 79.232H61.8058ZM73.2384 76.424L69.2784 86.096H68.1504L69.4464 82.928L66.7944 76.424H68.0064L70.0704 81.752L72.1104 76.424H73.2384ZM77.2041 83.108C76.5881 83.108 76.0281 82.968 75.5241 82.688C75.0281 82.408 74.6361 82.012 74.3481 81.5C74.0681 80.98 73.9281 80.38 73.9281 79.7C73.9281 79.028 74.0721 78.436 74.3601 77.924C74.6561 77.404 75.0561 77.008 75.5601 76.736C76.0641 76.456 76.6281 76.316 77.2521 76.316C77.8761 76.316 78.4401 76.456 78.9441 76.736C79.4481 77.008 79.8441 77.4 80.1321 77.912C80.4281 78.424 80.5761 79.02 80.5761 79.7C80.5761 80.38 80.4241 80.98 80.1201 81.5C79.8241 82.012 79.4201 82.408 78.9081 82.688C78.3961 82.968 77.8281 83.108 77.2041 83.108ZM77.2041 82.148C77.5961 82.148 77.9641 82.056 78.3081 81.872C78.6521 81.688 78.9281 81.412 79.1361 81.044C79.3521 80.676 79.4601 80.228 79.4601 79.7C79.4601 79.172 79.3561 78.724 79.1481 78.356C78.9401 77.988 78.6681 77.716 78.3321 77.54C77.9961 77.356 77.6321 77.264 77.2401 77.264C76.8401 77.264 76.4721 77.356 76.1361 77.54C75.8081 77.716 75.5441 77.988 75.3441 78.356C75.1441 78.724 75.0441 79.172 75.0441 79.7C75.0441 80.236 75.1401 80.688 75.3321 81.056C75.5321 81.424 75.7961 81.7 76.1241 81.884C76.4521 82.06 76.8121 82.148 77.2041 82.148ZM87.8439 76.424V83H86.7519V82.028C86.5439 82.364 86.2519 82.628 85.8759 82.82C85.5079 83.004 85.0999 83.096 84.6519 83.096C84.1399 83.096 83.6799 82.992 83.2719 82.784C82.8639 82.568 82.5399 82.248 82.2999 81.824C82.0679 81.4 81.9519 80.884 81.9519 80.276V76.424H83.0319V80.132C83.0319 80.78 83.1959 81.28 83.5239 81.632C83.8519 81.976 84.2999 82.148 84.8679 82.148C85.4519 82.148 85.9119 81.968 86.2479 81.608C86.5839 81.248 86.7519 80.724 86.7519 80.036V76.424H87.8439ZM90.7797 77.492C90.9717 77.116 91.2437 76.824 91.5957 76.616C91.9557 76.408 92.3917 76.304 92.9037 76.304V77.432H92.6157C91.3917 77.432 90.7797 78.096 90.7797 79.424V83H89.6877V76.424H90.7797V77.492ZM97.9275 75.356C97.7195 75.356 97.5435 75.284 97.3995 75.14C97.2555 74.996 97.1835 74.82 97.1835 74.612C97.1835 74.404 97.2555 74.228 97.3995 74.084C97.5435 73.94 97.7195 73.868 97.9275 73.868C98.1275 73.868 98.2955 73.94 98.4315 74.084C98.5755 74.228 98.6475 74.404 98.6475 74.612C98.6475 74.82 98.5755 74.996 98.4315 75.14C98.2955 75.284 98.1275 75.356 97.9275 75.356ZM98.4555 76.424V83H97.3635V76.424H98.4555ZM108.225 76.304C108.737 76.304 109.193 76.412 109.593 76.628C109.993 76.836 110.309 77.152 110.541 77.576C110.773 78 110.889 78.516 110.889 79.124V83H109.809V79.28C109.809 78.624 109.645 78.124 109.317 77.78C108.997 77.428 108.561 77.252 108.009 77.252C107.441 77.252 106.989 77.436 106.653 77.804C106.317 78.164 106.149 78.688 106.149 79.376V83H105.069V79.28C105.069 78.624 104.905 78.124 104.577 77.78C104.257 77.428 103.821 77.252 103.269 77.252C102.701 77.252 102.249 77.436 101.913 77.804C101.577 78.164 101.409 78.688 101.409 79.376V83H100.317V76.424H101.409V77.372C101.625 77.028 101.913 76.764 102.273 76.58C102.641 76.396 103.045 76.304 103.485 76.304C104.037 76.304 104.525 76.428 104.949 76.676C105.373 76.924 105.689 77.288 105.897 77.768C106.081 77.304 106.385 76.944 106.809 76.688C107.233 76.432 107.705 76.304 108.225 76.304ZM112.272 79.688C112.272 79.016 112.408 78.428 112.68 77.924C112.952 77.412 113.324 77.016 113.796 76.736C114.276 76.456 114.808 76.316 115.392 76.316C115.968 76.316 116.468 76.44 116.892 76.688C117.316 76.936 117.632 77.248 117.84 77.624V76.424H118.944V83H117.84V81.776C117.624 82.16 117.3 82.48 116.868 82.736C116.444 82.984 115.948 83.108 115.38 83.108C114.796 83.108 114.268 82.964 113.796 82.676C113.324 82.388 112.952 81.984 112.68 81.464C112.408 80.944 112.272 80.352 112.272 79.688ZM117.84 79.7C117.84 79.204 117.74 78.772 117.54 78.404C117.34 78.036 117.068 77.756 116.724 77.564C116.388 77.364 116.016 77.264 115.608 77.264C115.2 77.264 114.828 77.36 114.492 77.552C114.156 77.744 113.888 78.024 113.688 78.392C113.488 78.76 113.388 79.192 113.388 79.688C113.388 80.192 113.488 80.632 113.688 81.008C113.888 81.376 114.156 81.66 114.492 81.86C114.828 82.052 115.2 82.148 115.608 82.148C116.016 82.148 116.388 82.052 116.724 81.86C117.068 81.66 117.34 81.376 117.54 81.008C117.74 80.632 117.84 80.196 117.84 79.7ZM123.501 76.316C124.069 76.316 124.565 76.44 124.989 76.688C125.421 76.936 125.741 77.248 125.949 77.624V76.424H127.053V83.144C127.053 83.744 126.925 84.276 126.669 84.74C126.413 85.212 126.045 85.58 125.565 85.844C125.093 86.108 124.541 86.24 123.909 86.24C123.045 86.24 122.325 86.036 121.749 85.628C121.173 85.22 120.833 84.664 120.729 83.96H121.809C121.929 84.36 122.177 84.68 122.553 84.92C122.929 85.168 123.381 85.292 123.909 85.292C124.509 85.292 124.997 85.104 125.373 84.728C125.757 84.352 125.949 83.824 125.949 83.144V81.764C125.733 82.148 125.413 82.468 124.989 82.724C124.565 82.98 124.069 83.108 123.501 83.108C122.917 83.108 122.385 82.964 121.905 82.676C121.433 82.388 121.061 81.984 120.789 81.464C120.517 80.944 120.381 80.352 120.381 79.688C120.381 79.016 120.517 78.428 120.789 77.924C121.061 77.412 121.433 77.016 121.905 76.736C122.385 76.456 122.917 76.316 123.501 76.316ZM125.949 79.7C125.949 79.204 125.849 78.772 125.649 78.404C125.449 78.036 125.177 77.756 124.833 77.564C124.497 77.364 124.125 77.264 123.717 77.264C123.309 77.264 122.937 77.36 122.601 77.552C122.265 77.744 121.997 78.024 121.797 78.392C121.597 78.76 121.497 79.192 121.497 79.688C121.497 80.192 121.597 80.632 121.797 81.008C121.997 81.376 122.265 81.66 122.601 81.86C122.937 82.052 123.309 82.148 123.717 82.148C124.125 82.148 124.497 82.052 124.833 81.86C125.177 81.66 125.449 81.376 125.649 81.008C125.849 80.632 125.949 80.196 125.949 79.7ZM134.899 79.46C134.899 79.668 134.887 79.888 134.863 80.12H129.607C129.647 80.768 129.867 81.276 130.267 81.644C130.675 82.004 131.167 82.184 131.743 82.184C132.215 82.184 132.607 82.076 132.919 81.86C133.239 81.636 133.463 81.34 133.591 80.972H134.767C134.591 81.604 134.239 82.12 133.711 82.52C133.183 82.912 132.527 83.108 131.743 83.108C131.119 83.108 130.559 82.968 130.063 82.688C129.575 82.408 129.191 82.012 128.911 81.5C128.631 80.98 128.491 80.38 128.491 79.7C128.491 79.02 128.627 78.424 128.899 77.912C129.171 77.4 129.551 77.008 130.039 76.736C130.535 76.456 131.103 76.316 131.743 76.316C132.367 76.316 132.919 76.452 133.399 76.724C133.879 76.996 134.247 77.372 134.503 77.852C134.767 78.324 134.899 78.86 134.899 79.46ZM133.771 79.232C133.771 78.816 133.679 78.46 133.495 78.164C133.311 77.86 133.059 77.632 132.739 77.48C132.427 77.32 132.079 77.24 131.695 77.24C131.143 77.24 130.671 77.416 130.279 77.768C129.895 78.12 129.675 78.608 129.619 79.232H133.771ZM55.8961 92.636V93.524H52.2601V96.344H55.2121V97.232H52.2601V101H51.1681V92.636H55.8961ZM58.307 95.492C58.499 95.116 58.771 94.824 59.123 94.616C59.483 94.408 59.919 94.304 60.431 94.304V95.432H60.143C58.919 95.432 58.307 96.096 58.307 97.424V101H57.215V94.424H58.307V95.492ZM64.5596 101.108C63.9436 101.108 63.3836 100.968 62.8796 100.688C62.3836 100.408 61.9916 100.012 61.7036 99.5C61.4236 98.98 61.2836 98.38 61.2836 97.7C61.2836 97.028 61.4276 96.436 61.7156 95.924C62.0116 95.404 62.4116 95.008 62.9156 94.736C63.4196 94.456 63.9836 94.316 64.6076 94.316C65.2316 94.316 65.7956 94.456 66.2996 94.736C66.8036 95.008 67.1996 95.4 67.4876 95.912C67.7836 96.424 67.9316 97.02 67.9316 97.7C67.9316 98.38 67.7796 98.98 67.4756 99.5C67.1796 100.012 66.7756 100.408 66.2636 100.688C65.7516 100.968 65.1836 101.108 64.5596 101.108ZM64.5596 100.148C64.9516 100.148 65.3196 100.056 65.6636 99.872C66.0076 99.688 66.2836 99.412 66.4916 99.044C66.7076 98.676 66.8156 98.228 66.8156 97.7C66.8156 97.172 66.7116 96.724 66.5036 96.356C66.2956 95.988 66.0236 95.716 65.6876 95.54C65.3516 95.356 64.9876 95.264 64.5956 95.264C64.1956 95.264 63.8276 95.356 63.4916 95.54C63.1636 95.716 62.8996 95.988 62.6996 96.356C62.4996 96.724 62.3996 97.172 62.3996 97.7C62.3996 98.236 62.4956 98.688 62.6876 99.056C62.8876 99.424 63.1516 99.7 63.4796 99.884C63.8076 100.06 64.1676 100.148 64.5596 100.148ZM72.5714 94.304C73.3714 94.304 74.0194 94.548 74.5154 95.036C75.0114 95.516 75.2594 96.212 75.2594 97.124V101H74.1794V97.28C74.1794 96.624 74.0154 96.124 73.6874 95.78C73.3594 95.428 72.9114 95.252 72.3434 95.252C71.7674 95.252 71.3074 95.432 70.9634 95.792C70.6274 96.152 70.4594 96.676 70.4594 97.364V101H69.3674V94.424H70.4594V95.36C70.6754 95.024 70.9674 94.764 71.3354 94.58C71.7114 94.396 72.1234 94.304 72.5714 94.304ZM78.3751 95.324V99.2C78.3751 99.52 78.4431 99.748 78.5791 99.884C78.7151 100.012 78.9511 100.076 79.2871 100.076H80.0911V101H79.1071C78.4991 101 78.0431 100.86 77.7391 100.58C77.4351 100.3 77.2831 99.84 77.2831 99.2V95.324H76.4311V94.424H77.2831V92.768H78.3751V94.424H80.0911V95.324H78.3751ZM85.7055 95.636C85.9215 95.26 86.2415 94.948 86.6655 94.7C87.0975 94.444 87.5975 94.316 88.1655 94.316C88.7495 94.316 89.2775 94.456 89.7495 94.736C90.2295 95.016 90.6055 95.412 90.8775 95.924C91.1495 96.428 91.2855 97.016 91.2855 97.688C91.2855 98.352 91.1495 98.944 90.8775 99.464C90.6055 99.984 90.2295 100.388 89.7495 100.676C89.2775 100.964 88.7495 101.108 88.1655 101.108C87.6055 101.108 87.1095 100.984 86.6775 100.736C86.2535 100.48 85.9295 100.164 85.7055 99.788V104.12H84.6135V94.424H85.7055V95.636ZM90.1695 97.688C90.1695 97.192 90.0695 96.76 89.8695 96.392C89.6695 96.024 89.3975 95.744 89.0535 95.552C88.7175 95.36 88.3455 95.264 87.9375 95.264C87.5375 95.264 87.1655 95.364 86.8215 95.564C86.4855 95.756 86.2135 96.04 86.0055 96.416C85.8055 96.784 85.7055 97.212 85.7055 97.7C85.7055 98.196 85.8055 98.632 86.0055 99.008C86.2135 99.376 86.4855 99.66 86.8215 99.86C87.1655 100.052 87.5375 100.148 87.9375 100.148C88.3455 100.148 88.7175 100.052 89.0535 99.86C89.3975 99.66 89.6695 99.376 89.8695 99.008C90.0695 98.632 90.1695 98.192 90.1695 97.688ZM92.3148 97.688C92.3148 97.016 92.4508 96.428 92.7228 95.924C92.9948 95.412 93.3668 95.016 93.8388 94.736C94.3188 94.456 94.8508 94.316 95.4348 94.316C96.0108 94.316 96.5108 94.44 96.9348 94.688C97.3588 94.936 97.6748 95.248 97.8828 95.624V94.424H98.9868V101H97.8828V99.776C97.6668 100.16 97.3428 100.48 96.9108 100.736C96.4868 100.984 95.9908 101.108 95.4228 101.108C94.8388 101.108 94.3108 100.964 93.8388 100.676C93.3668 100.388 92.9948 99.984 92.7228 99.464C92.4508 98.944 92.3148 98.352 92.3148 97.688ZM97.8828 97.7C97.8828 97.204 97.7828 96.772 97.5828 96.404C97.3828 96.036 97.1108 95.756 96.7668 95.564C96.4308 95.364 96.0588 95.264 95.6508 95.264C95.2428 95.264 94.8708 95.36 94.5348 95.552C94.1988 95.744 93.9308 96.024 93.7308 96.392C93.5308 96.76 93.4308 97.192 93.4308 97.688C93.4308 98.192 93.5308 98.632 93.7308 99.008C93.9308 99.376 94.1988 99.66 94.5348 99.86C94.8708 100.052 95.2428 100.148 95.6508 100.148C96.0588 100.148 96.4308 100.052 96.7668 99.86C97.1108 99.66 97.3828 99.376 97.5828 99.008C97.7828 98.632 97.8828 98.196 97.8828 97.7ZM101.924 95.492C102.116 95.116 102.388 94.824 102.74 94.616C103.1 94.408 103.536 94.304 104.048 94.304V95.432H103.76C102.536 95.432 101.924 96.096 101.924 97.424V101H100.832V94.424H101.924V95.492ZM106.641 95.324V99.2C106.641 99.52 106.709 99.748 106.845 99.884C106.981 100.012 107.217 100.076 107.553 100.076H108.357V101H107.373C106.765 101 106.309 100.86 106.005 100.58C105.701 100.3 105.549 99.84 105.549 99.2V95.324H104.697V94.424H105.549V92.768H106.641V94.424H108.357V95.324H106.641Z" fill="#2889C6"/>
</svg>
