<svg width="16" height="16" viewBox="0 0 16 16" fill="none" xmlns="http://www.w3.org/2000/svg">
<path d="M12.6667 6.66732H13.3333C13.7015 6.66732 14 6.96578 14 7.33398V14.0007C14 14.3689 13.7015 14.6673 13.3333 14.6673H2.66667C2.29848 14.6673 2 14.3689 2 14.0007V7.33398C2 6.96578 2.29848 6.66732 2.66667 6.66732H3.33333V6.00065C3.33333 3.42332 5.42267 1.33398 8 1.33398C10.5773 1.33398 12.6667 3.42332 12.6667 6.00065V6.66732ZM3.33333 8.00065V13.334H12.6667V8.00065H3.33333ZM7.33333 9.33398H8.66667V12.0007H7.33333V9.33398ZM11.3333 6.66732V6.00065C11.3333 4.1597 9.84093 2.66732 8 2.66732C6.15905 2.66732 4.66667 4.1597 4.66667 6.00065V6.66732H11.3333Z" fill="#2C2C2C"/>
</svg>
