<svg width="32" height="32" viewBox="0 0 32 32" fill="none" xmlns="http://www.w3.org/2000/svg">
<circle cx="16" cy="16" r="16" fill="#050A1E" fill-opacity="0.06"/>
<path d="M21.8837 22.8107C20.306 24.1748 18.2494 25 16 25C11.0294 25 7 20.9705 7 16C7 11.0294 11.0294 7 16 7C20.9705 7 25 11.0294 25 16C25 17.9225 24.3972 19.7042 23.3703 21.1665L20.5 16H23.2C23.2 12.0235 19.9765 8.8 16 8.8C12.0235 8.8 8.8 12.0235 8.8 16C8.8 19.9765 12.0235 23.2 16 23.2C17.9352 23.2 19.692 22.4365 20.9858 21.1944L21.8837 22.8107Z" fill="#2C2C2C"/>
</svg>
