<svg width="24" height="24" viewBox="0 0 24 24" fill="none" xmlns="http://www.w3.org/2000/svg">
<path d="M8.1 4.7L5.55 3L3 4.7V17.45C3 18.8584 4.14168 20 5.55 20H17.45C18.8584 20 20 18.8584 20 17.45V14.9H18.3V4.7L15.75 3L13.2 4.7L10.65 3L8.1 4.7ZM16.6 14.9H6.4V17.45C6.4 17.9195 6.01944 18.3 5.55 18.3C5.08056 18.3 4.7 17.9195 4.7 17.45V5.60981L5.55 5.04314L8.1 6.74314L10.65 5.04314L13.2 6.74314L15.75 5.04314L16.6 5.60981V14.9ZM17.45 18.3H7.9549C8.04887 18.0341 8.1 17.748 8.1 17.45V16.6H18.3V17.45C18.3 17.9195 17.9195 18.3 17.45 18.3Z" fill="#2C2C2C"/>
</svg>
